PathFileType	4	(X/Y/Z)	/Users/niels/Desktop/University/Third Semester/Perception and Action/Exam/Gymnastics Motion Tracking/Code for Gym Tracking/Analyzed Data/Webcam_Backflip/id6_4_baseline_Sports2D/id6_4_baseline_Sports2D_px_person00.trc
DataRate	CameraRate	NumFrames	NumMarkers	Units	OrigDataRate	OrigDataStartFrame	OrigNumFrames
29.81132075471698	29.81132075471698	12	22	m	29.81132075471698	19	159
Frame#	Time	Hip			RHip			RKnee			RAnkle			RBigToe			RSmallToe			RHeel			LHip			LKnee			LAnkle			LBigToe			LSmallToe			LHeel			Neck			Head			Nose			RShoulder			RElbow			RWrist			LShoulder			LElbow			LWrist		
		X1	Y1	Z1	X2	Y2	Z2	X3	Y3	Z3	X4	Y4	Z4	X5	Y5	Z5	X6	Y6	Z6	X7	Y7	Z7	X8	Y8	Z8	X9	Y9	Z9	X10	Y10	Z10	X11	Y11	Z11	X12	Y12	Z12	X13	Y13	Z13	X14	Y14	Z14	X15	Y15	Z15	X16	Y16	Z16	X17	Y17	Z17	X18	Y18	Z18	X19	Y19	Z19	X20	Y20	Z20	X21	Y21	Z21	X22	Y22	Z22
19	0.6373417721518987	0.9732239512148494	-0.5881274555731866	0.0	0.9740900605483764	-0.5883770061930106	0.0	0.9892969721610633	-0.6884599444077143	0.0	0.9761629563514983	-0.7862680022117395	0.0	1.011382602746675	-0.8026117294392023	0.0	1.0029911692222377	-0.8064411738648337	0.0	0.9682494511343116	-0.8010531878924207	0.0	0.9729233603981674	-0.5871648111285479	0.0	0.9880974987614698	-0.6878460818729398	0.0	0.9763214779752238	-0.7821378649170599	0.0	1.0120207665904768	-0.7992615788487577	0.0	1.007315182833966	-0.7970833904768149	0.0	0.9658048379828913	-0.7955789744560667	0.0	1.0144526092952317	-0.4595142721822842	0.0	1.0458167344480636	-0.39975009359798663	0.0	1.052193144512853	-0.43334831970740273	0.0	1.012414079726052	-0.47248041956676085	0.0	0.9970484772265279	-0.5229675352799051	0.0	0.9805986686023329	-0.5728980512685	0.0	1.0032407730990032	-0.4694815819065999	0.0	0.9888635786983602	-0.5185006520084636	0.0	0.9787856618633767	-0.5659392822486352	0.0
20	0.6708860759493671	0.9742318741534395	-0.5869666580780591	0.0	0.974172844846335	-0.5873193119424537	0.0	0.9914243384279171	-0.6870641973331751	0.0	0.976066834130408	-0.7845940817842153	0.0	1.0113945457971472	-0.8006316498387568	0.0	1.0031046996978077	-0.804642488720274	0.0	0.9678218658531974	-0.7989012568085241	0.0	0.9735240231823272	-0.5858455529771102	0.0	0.9903674085037019	-0.6861285571627826	0.0	0.976731933383633	-0.7800471162754357	0.0	1.0121276514938313	-0.7972720379724403	0.0	1.0073824173211943	-0.7949039206180378	0.0	0.965592904188602	-0.7931515666910923	0.0	1.0139841259142728	-0.45799708941226797	0.0	1.0477551541700465	-0.3984734720343343	0.0	1.052862460665932	-0.43208581612402114	0.0	1.0123008187162827	-0.4694572392552817	0.0	0.9847347217843219	-0.5112552686752657	0.0	0.9568084790245042	-0.5519063955115663	0.0	1.0029139571960528	-0.4664982940558123	0.0	0.9782395294058721	-0.5066774382121406	0.0	0.9565242647189061	-0.5479363134441181	0.0
21	0.7044303797468354	0.9743706256930031	-0.585246866681647	0.0	0.973143709848345	-0.5856240612633088	0.0	0.994561319027315	-0.6846099896453993	0.0	0.9760891699636083	-0.7816050233012931	0.0	1.0120260680568345	-0.7975206682500403	0.0	1.0036872504710423	-0.8016575287613809	0.0	0.967315337941417	-0.795324337811801	0.0	0.973455472434848	-0.5838473768107262	0.0	0.9935713594863704	-0.6832259201433183	0.0	0.9772591037628847	-0.7768140784842184	0.0	1.0123975622841757	-0.794153998401206	0.0	1.0075737230766073	-0.7915488719194439	0.0	0.9654163902614691	-0.7894779464767185	0.0	1.013260498388788	-0.4563121029974504	0.0	1.0497144736687223	-0.39683882883056654	0.0	1.0535605272887871	-0.43041618650713837	0.0	1.0119238995033284	-0.46607495321700076	0.0	0.973571660668467	-0.4981346262789391	0.0	0.9364652992733449	-0.5276256668370602	0.0	1.0025161293257523	-0.46334834968779093	0.0	0.9699519249284829	-0.49370775316466803	0.0	0.9378865024128898	-0.5278853472723449	0.0
22	0.7379746835443037	0.9735250050707893	-0.5832777003179279	0.0	0.9711374645658265	-0.5835830908799232	0.0	0.9988136353641759	-0.6811774432089355	0.0	0.9763700586883044	-0.7772581813879422	0.0	1.0132702145598529	-0.7933044860304874	0.0	1.0047130365586003	-0.7975075209014476	0.0	0.9670082823469394	-0.7905046795550963	0.0	0.9727250703472032	-0.5815000175148908	0.0	0.9977305357092182	-0.6793280818253743	0.0	0.9778868573184482	-0.772526313115867	0.0	1.0128864165099272	-0.7899799893787435	0.0	1.0079428517358258	-0.7872441035852575	0.0	0.9654255998597221	-0.7847242481336801	0.0	1.0123335146136667	-0.45488305355998176	0.0	1.0515795216875643	-0.39536477373810286	0.0	1.0542334511153792	-0.42882915929768994	0.0	1.011258505990948	-0.4629800735882611	0.0	0.9638735362035197	-0.4852135973772055	0.0	0.9197423792874966	-0.5031590755475877	0.0	1.002104831294136	-0.4606467167693041	0.0	0.9637677629727245	-0.481258258614621	0.0	0.9234126690877074	-0.5085408853839176	0.0
23	0.7715189873417722	0.9717887436857218	-0.5814573155536265	0.0	0.9684438947440736	-0.5816622808124186	0.0	1.0039787800697115	-0.6770552913810958	0.0	0.9770165541584571	-0.7718500834135272	0.0	1.014974550953719	-0.7881883864902968	0.0	1.0061237749839862	-0.7924344688495787	0.0	0.9671163842561684	-0.7848672508645392	0.0	0.9714497816010554	-0.579298867875998	0.0	1.0026568395586324	-0.67481721337797	0.0	0.9786285115902593	-0.7674083552175736	0.0	1.0138527100176837	-0.7849849020435375	0.0	1.008646216072258	-0.7823940081650953	0.0	0.9657890383531593	-0.779244586467748	0.0	1.0114007370516953	-0.45417773368395475	0.0	1.0531873379164305	-0.39468501331632977	0.0	1.0548553812954158	-0.4279338243987855	0.0	1.010449882500642	-0.46091903019494823	0.0	0.9557898651417818	-0.4741782380266016	0.0	0.9063727231405897	-0.4816725397697389	0.0	1.001848403957935	-0.4589886934092364	0.0	0.9591653713315939	-0.4710799597829987	0.0	0.912754451736601	-0.49240948764233866	0.0
24	0.8050632911392405	0.9694079985120021	-0.5803069112321813	0.0	0.9654044637311522	-0.5804670936541809	0.0	1.0095281984152271	-0.6727397558759018	0.0	0.9780241266416876	-0.7660379052368501	0.0	1.0168516825776868	-0.7826686560071276	0.0	1.0077699491413235	-0.7869582978660202	0.0	0.9676604379564469	-0.7790552362047376	0.0	0.9697742801970218	-0.5778503915739683	0.0	1.0079410053612776	-0.6702201014676175	0.0	0.9794974086614151	-0.7618783447093773	0.0	1.015456254055202	-0.7795969726286297	0.0	1.0097783322102794	-0.777478316894082	0.0	0.9665867848346654	-0.7735238492530677	0.0	1.0106971617929659	-0.45469793073866016	0.0	1.0544209474655757	-0.395362716896128	0.0	1.0554143214756384	-0.428271701702101	0.0	1.0097485033598317	-0.4605911972968331	0.0	0.9494338337169548	-0.4667097678647956	0.0	0.8960598355113691	-0.46625354436672195	0.0	1.0018570467975472	-0.4588989578206553	0.0	0.9554382700870648	-0.4645887742761222	0.0	0.9047369895175056	-0.48128520264944896	0.0
25	0.8386075949367088	0.9666947922085212	-0.5804254031278777	0.0	0.9623142822039025	-0.5806509664549808	0.0	1.0147923017421177	-0.6688728885874976	0.0	0.9792302963146298	-0.7607380327818823	0.0	1.018508873988186	-0.7775418996529052	0.0	1.0093451147904453	-0.7818649792650373	0.0	0.9684671468907338	-0.7738536053832591	0.0	0.9678436344668851	-0.5777748187529144	0.0	1.0130389840109044	-0.6661593693831936	0.0	0.9804295149729452	-0.7566114163642637	0.0	1.0174228456499732	-0.7744883606837683	0.0	1.0112043702740836	-0.7730536639518691	0.0	0.9676910364655168	-0.7681925764931478	0.0	1.0103385785561194	-0.45696381585050255	0.0	1.0551895884861984	-0.39775749892613926	0.0	1.055834716907097	-0.430205719302238	0.0	1.0092643237120213	-0.46256608681757677	0.0	0.9449118818403888	-0.4643828419486041	0.0	0.8886395683024879	-0.4596290894224422	0.0	1.0020697880596592	-0.46083120250083426	0.0	0.9519977910391632	-0.46276960688278035	0.0	0.8981096225685345	-0.4763606199188309	0.0
26	0.8721518987341772	0.9639562307756757	-0.5823768533797132	0.0	0.9593946305529298	-0.5827945177144863	0.0	1.0192125247525603	-0.6662113471890713	0.0	0.9803819663528555	-0.7569584345746672	0.0	1.0195749364207214	-0.7737845191588939	0.0	1.010482444481172	-0.7781118597494943	0.0	0.9692736151357092	-0.7700939690316619	0.0	0.9658038407489262	-0.5796283203435666	0.0	1.0174247453705236	-0.6633953531894465	0.0	0.9812816397138621	-0.7525052905500015	0.0	1.0191474148611201	-0.7705878470986915	0.0	1.012602085132718	-0.7698419164504827	0.0	0.968798836957184	-0.7640579739138298	0.0	1.010248841071467	-0.4613604134479653	0.0	1.05526442227878	-0.40199805763427665	0.0	1.0558939866869188	-0.43391881733911003	0.0	1.0088515802739946	-0.467231867092483	0.0	0.9422647034753522	-0.4684521148820968	0.0	0.884097671237221	-0.46371134829005967	0.0	1.0022970082532905	-0.4651663946094631	0.0	0.9487140306059554	-0.4664855600574482	0.0	0.8925386646108899	-0.4787957736425518	0.0
27	0.9056962025316455	0.9614535353672372	-0.5865938930263883	0.0	0.9568582059689241	-0.5873093807901253	0.0	1.0224847998208175	-0.6656314331649765	0.0	0.9812636215906063	-0.7556410285121914	0.0	1.0198234686987089	-0.772370944635497	0.0	1.0109077629642929	-0.7766777134686016	0.0	0.9698506789463025	-0.7685737946476768	0.0	0.9637605681980409	-0.583853805614442	0.0	1.0207117724113648	-0.6628494650741551	0.0	0.9818806586336032	-0.7505466442067339	0.0	1.020030598172034	-0.7689560535258363	0.0	1.0135598082417518	-0.7687111137843159	0.0	0.9695556716822886	-0.7620197070352162	0.0	1.0101822228148782	-0.4679467884504613	0.0	1.0541468762137254	-0.4079962141986479	0.0	1.0552140487879549	-0.439404639845667	0.0	1.0082217021764077	-0.4747240758979169	0.0	0.941555411724933	-0.4795273125846046	0.0	0.8828136592709771	-0.4791382205859043	0.0	1.0022947367987098	-0.4721172105035668	0.0	0.9461122840506043	-0.4765221953523294	0.0	0.8891598761369491	-0.48976811031446976	0.0
28	0.9392405063291138	0.9593883201278482	-0.5932955936861039	0.0	0.9549575727558647	-0.5943774019591537	0.0	1.0245337727246706	-0.6680404243164104	0.0	0.9817652887314563	-0.7575560714520858	0.0	1.0191486931264617	-0.7741451627742152	0.0	1.0104446283620245	-0.7783971993376279	0.0	0.9700766505026502	-0.7699835573649859	0.0	0.9617624533646021	-0.5907084713753895	0.0	1.0226856138405156	-0.6654415409444994	0.0	0.9820939620037933	-0.7516999638907237	0.0	1.0196783540342533	-0.7705621321595107	0.0	1.01367434036078	-0.7705040360070224	0.0	0.9696848281680323	-0.7629435964193425	0.0	1.0097691873135834	-0.47637976326352327	0.0	1.0511193015342535	-0.41545528460601744	0.0	1.0533305781465745	-0.4464246316303314	0.0	1.0070823009595284	-0.48480960122589295	0.0	0.9431047174926133	-0.49723709624333556	0.0	0.8859855813643817	-0.5048740211490286	0.0	1.0017631875967803	-0.4815449313203435	0.0	0.9453139465434683	-0.4929875437109164	0.0	0.8904069884687705	-0.5096106032919497	0.0
29	0.9727848101265822	0.9579046190088487	-0.6023774324825647	0.0	0.9539190226462462	-0.6038705819403147	0.0	1.0253617318324493	-0.6741375201241865	0.0	0.9818812115105282	-0.7632083426052872	0.0	1.0175118959566072	-0.7797017357715319	0.0	1.0089963750365956	-0.783796175173088	0.0	0.9699612674251471	-0.7748009322225271	0.0	0.9599059279506016	-0.6001148359685003	0.0	1.0232600333283541	-0.671809668609099	0.0	0.9819178467633757	-0.756785757976795	0.0	1.018031138292877	-0.7760924976481892	0.0	1.0127740735289348	-0.7758382448828973	0.0	0.969141143298455	-0.7675506847067325	0.0	1.0085225147547403	-0.48596477243799474	0.0	1.0455163803932674	-0.4238713701792484	0.0	1.0497841635463883	-0.45449674199801604	0.0	1.0051455632552273	-0.4967546314096146	0.0	0.947607893181132	-0.5198942569994355	0.0	0.8957820391788971	-0.5378628081824915	0.0	1.0003246892919446	-0.4927989821779379	0.0	0.9477212272652674	-0.5144676964972239	0.0	0.899267295307347	-0.5365273367597974	0.0
30	1.0063291139240507	0.9571083552107374	-0.6132967360512663	0.0	0.9538476448133518	-0.6152242608280799	0.0	1.0248959135807387	-0.6840899498408515	0.0	0.981671973036705	-0.7726606828349464	0.0	1.0150133247147468	-0.7891131628142378	0.0	1.0066464965613846	-0.7928824131222003	0.0	0.9696332838127419	-0.7831304725373923	0.0	0.958486265989326	-0.6114994433503697	0.0	1.0224315947586495	-0.6820349715312337	0.0	0.9814779324078614	-0.7661715240463963	0.0	1.0154744259887534	-0.7856785703653131	0.0	1.0111007267698335	-0.7848440834664298	0.0	0.9681651860198006	-0.7761809922819427	0.0	1.0058457820943694	-0.49580112263990633	0.0	1.0370501466975026	-0.43253808278917566	0.0	1.0442112941681607	-0.4629491503715684	0.0	1.00204686202034	-0.5093071926908997	0.0	0.9558310055980913	-0.5442567858053691	0.0	0.9145947569224377	-0.5727050199800091	0.0	0.9975732174481027	-0.504726602459731	0.0	0.9544982662006741	-0.5376612449375542	0.0	0.9181279901351871	-0.565714928048034	0.0
